<?xml version="1.0" encoding="UTF-8" standalone="no"?>
<svg
   xmlns:dc="http://purl.org/dc/elements/1.1/"
   xmlns:cc="http://creativecommons.org/ns#"
   xmlns:rdf="http://www.w3.org/1999/02/22-rdf-syntax-ns#"
   xmlns:svg="http://www.w3.org/2000/svg"
   xmlns="http://www.w3.org/2000/svg"
   xmlns:xlink="http://www.w3.org/1999/xlink"
   xmlns:sodipodi="http://sodipodi.sourceforge.net/DTD/sodipodi-0.dtd"
   xmlns:inkscape="http://www.inkscape.org/namespaces/inkscape"
   id="Layer_1"
   viewBox="0 0 480 139"
   version="1.1"
   sodipodi:docname="liismLogo.svg"
   inkscape:version="0.92.4 (5da689c313, 2019-01-14)">
  <metadata
     id="metadata29">
    <rdf:RDF>
      <cc:Work
         rdf:about="">
        <dc:format>image/svg+xml</dc:format>
        <dc:type
           rdf:resource="http://purl.org/dc/dcmitype/StillImage" />
        <dc:title></dc:title>
      </cc:Work>
    </rdf:RDF>
  </metadata>
  <defs
     id="defs27">
    <linearGradient
       inkscape:collect="always"
       id="linearGradient4690">
      <stop
         style="stop-color:#00d4aa;stop-opacity:1;"
         offset="0"
         id="stop4686" />
      <stop
         style="stop-color:#00d4aa;stop-opacity:0;"
         offset="1"
         id="stop4688" />
    </linearGradient>
    <linearGradient
       inkscape:collect="always"
       id="linearGradient4680">
      <stop
         style="stop-color:#c15ba7;stop-opacity:1;"
         offset="0"
         id="stop4676" />
      <stop
         style="stop-color:#c15ba7;stop-opacity:0;"
         offset="1"
         id="stop4678" />
    </linearGradient>
    <linearGradient
       inkscape:collect="always"
       xlink:href="#linearGradient4680"
       id="linearGradient4684"
       x1="379.23685"
       y1="70.315788"
       x2="460.23685"
       y2="70.315788"
       gradientUnits="userSpaceOnUse"
       gradientTransform="translate(-828.52706,-171.33737)" />
    <radialGradient
       inkscape:collect="always"
       xlink:href="#linearGradient4690"
       id="radialGradient4692"
       cx="-412.8201"
       cy="-103.45484"
       fx="-412.8201"
       fy="-103.45484"
       r="42.5"
       gradientUnits="userSpaceOnUse"
       gradientTransform="translate(4.029875,2.4332637)" />
  </defs>
  <sodipodi:namedview
     pagecolor="#ffffff"
     bordercolor="#666666"
     borderopacity="1"
     objecttolerance="10"
     gridtolerance="10"
     guidetolerance="10"
     inkscape:pageopacity="0"
     inkscape:pageshadow="2"
     inkscape:window-width="1920"
     inkscape:window-height="1058"
     id="namedview25"
     showgrid="true"
     inkscape:zoom="1.9"
     inkscape:cx="296.62486"
     inkscape:cy="42.475682"
     inkscape:window-x="0"
     inkscape:window-y="0"
     inkscape:window-maximized="1"
     inkscape:current-layer="Layer_1"
     inkscape:snap-text-baseline="true">
    <inkscape:grid
       type="xygrid"
       id="grid4601" />
  </sodipodi:namedview>
  <style
     id="style2">.st0{fill:none}.st1{fill:#fff}.st2{font-family:Raleway; font-weight: 100;}.st6{fill:none;stroke:#000;stroke-width:3;stroke-miterlimit:10}</style>
  <path
     class="st0"
     d="M-1 139h479.92v.01H-1z"
     id="path6" />
  <path
     id="text8"
     style="font-weight:100;font-size:83.96116638px;font-family:Raleway;fill:#333333;stroke-width:1.47300291"
     d="m 305.20312,29.294922 c 0.19881,0.110789 0.40875,0.231084 0.57618,0.314453 0.0529,0.02633 0.10997,0.04283 0.16406,0.06641 V 29.294922 Z M 19.478516,31.759766 V 90.167969 H 55.007812 V 86.960938 H 23.775391 V 31.759766 Z m 282.511714,1.763672 v 0.701171 h 1.28125 c -0.0339,-0.0163 -0.0699,-0.02805 -0.10351,-0.04492 -0.33701,-0.169061 -0.74762,-0.403194 -1.17774,-0.65625 z M 71.546875,33.873047 c -0.424069,0.133913 -0.852132,0.264037 -1.234375,0.351562 h 1.234375 z m 24.402344,0.195312 c -0.403662,0.05863 -0.811821,0.111823 -0.837891,0.117188 -0.05262,0.01083 -0.103785,0.02762 -0.15625,0.03906 h 0.994141 z m 34.154301,11.226563 c -4.66844,0 -8.6067,1.005405 -11.81446,3.013672 -3.20776,2.008267 -4.8125,5.306159 -4.8125,9.896484 0,2.790709 1.33251,5.16499 3.9961,7.121094 2.11941,1.564883 5.19798,2.777986 9.23632,3.638672 l 2.75,0.585937 c 4.69708,0.991093 8.11953,2.269101 10.26758,3.833985 1.48932,1.095418 2.23438,2.842699 2.23438,5.242187 0,2.868953 -1.11762,5.191309 -3.35156,6.964844 -2.20537,1.747453 -5.62779,2.621094 -10.26758,2.621094 -2.77815,0 -5.58449,-0.339461 -8.41992,-1.017579 -1.03107,-0.260812 -3.2949,-1.303208 -6.78907,-3.128906 v 4.498047 c 2.43446,0.808523 4.75561,1.500428 6.96094,2.074219 1.83301,0.443384 4.52472,0.664062 8.07617,0.664062 6.35824,0 10.96992,-1.159225 13.83399,-3.480468 2.69222,-2.347326 4.03711,-5.595247 4.03711,-9.742188 -0.14321,-3.051523 -1.57406,-5.529652 -4.29493,-7.433594 -2.34853,-1.669209 -5.79964,-2.960198 -10.35351,-3.873046 l -2.70703,-0.546876 c -3.66601,-0.730277 -6.48668,-1.774627 -8.46289,-3.130859 -1.86165,-1.251907 -2.79297,-2.986207 -2.79297,-5.203125 0,-3.286255 0.98863,-5.606662 2.96484,-6.96289 2.57767,-1.643128 6.12907,-2.464844 10.6543,-2.464844 2.97863,0.07824 5.46976,0.337866 7.47461,0.78125 0.68737,0.156488 2.42107,0.939261 5.19922,2.347656 v -3.951172 c -1.74709,-0.704197 -3.53809,-1.2903 -5.3711,-1.759766 -1.51796,-0.391218 -4.26699,-0.58789 -8.24804,-0.58789 z m 53.70117,0 c -4.32475,0 -7.97645,0.821716 -10.95508,2.464844 -2.94999,1.669209 -5.12786,3.93964 -6.53125,6.808593 v -8.216797 h -3.95117 v 43.816407 h 3.95117 V 65.404297 c 0,-6.103045 1.84832,-10.497211 5.54297,-13.183594 3.3796,-2.503813 7.27488,-3.755859 11.68555,-3.755859 3.15047,0 5.61294,1.122235 7.38867,3.365234 1.77572,2.243 2.66406,6.284722 2.66406,12.126953 v 26.210938 h 3.95312 V 65.404297 c 0,-6.129127 1.84637,-10.536273 5.54102,-13.222656 3.3796,-2.477732 7.27488,-3.716797 11.68555,-3.716797 3.03591,0 5.46973,1.068357 7.30273,3.207031 1.83301,2.138674 2.75,6.234274 2.75,12.285156 v 26.210938 h 3.91016 V 63.722656 c 0,-6.93765 -1.2752,-11.736182 -3.82422,-14.396484 -2.52038,-2.686383 -5.87119,-4.03125 -10.05274,-4.03125 -4.18154,0 -7.79025,0.87364 -10.82617,2.621094 -3.20776,1.799616 -5.5556,4.461432 -7.04492,7.982422 -1.37475,-4.016535 -3.06546,-6.691334 -5.07031,-8.021485 -2.60631,-1.721372 -5.31235,-2.582031 -8.11914,-2.582031 z m 79.52148,0 c -2.94999,0 -6.03052,0.43033 -9.23828,1.291016 -2.20533,0.599871 -4.58184,1.618257 -7.13086,3.052734 v 3.873047 c 2.92135,-1.825698 5.29786,-3.0388 7.13086,-3.638672 2.86407,-0.93893 5.67237,-1.408203 8.42188,-1.408203 5.55629,0 9.53754,1.252046 11.94335,3.755859 2.43447,2.503814 3.6504,5.697853 3.6504,9.583985 v 0.705078 h -9.79493 c -8.13396,0 -13.99022,1.368876 -17.57031,4.107422 -3.58009,2.712462 -5.37109,6.338791 -5.37109,10.876953 0,4.538162 1.37549,7.980799 4.125,10.328125 2.74951,2.321243 6.51583,3.480468 11.29883,3.480468 2.86407,0 5.74205,-0.638027 8.63476,-1.916015 3.63737,-1.590965 6.55834,-5.295178 8.76367,-11.111328 v 11.892578 h 3.91016 V 65.169922 c 0,-7.433196 -1.59041,-12.493304 -4.76953,-15.179688 -3.66601,-3.129766 -8.33305,-4.695312 -14.00391,-4.695312 z m -195.73242,1.05664 v 43.816407 h 3.953125 V 46.351562 Z m 24.402344,0 v 43.816407 h 3.953125 V 46.351562 Z m 209.994136,0 v 43.816407 h 3.95313 V 46.351562 Z m 24.40235,0 v 43.816407 h 3.95117 V 46.351562 Z m -59.0293,19.091797 h 10.74024 v 2.699219 c 0,4.094778 -1.33056,8.462981 -3.99414,13.105469 -2.63496,4.642487 -6.96007,6.964844 -12.97461,6.964844 -3.17912,0 -5.92815,-0.808735 -8.24805,-2.425782 -2.3199,-1.617046 -3.48047,-4.354798 -3.48047,-8.214843 0,-3.964372 1.40219,-6.97668 4.20898,-9.03711 2.80679,-2.06043 7.38981,-3.091797 13.74805,-3.091797 z" />
  <path
     class="st0"
     d="M382.44 116.43l47.65-85.23 8.36-14.96M369.83 139l-.01.01L362 153"
     id="path12" />
  <g
     id="Group_186"
     transform="translate(-138.79437,84.044579)"
     style="fill:#1a1a1a">
    <g
       id="Group_185"
       style="fill:#1a1a1a">
      <g
         id="Words"
         style="fill:#1a1a1a" />
    </g>
  </g>
  <path
     class="st0"
     d="M457-17l-8.93 16-9.62 17.24-8.36 14.96L369.93 139l-.01.01L361 155"
     id="path22" />
  <text
     transform="matrix(-1.0479102,0.00352684,0.00321168,0.95426944,0,0)"
     y="110.30523"
     x="-357.51703"
     style="font-weight:100;font-size:83.96116638px;font-family:Raleway;fill:#aad400;stroke-width:1.47300291"
     id="text4566"
     font-size="57"
     class="st1 st2">L</text>
  <text
     xml:space="preserve"
     style="font-style:normal;font-weight:normal;font-size:40px;line-height:1.25;font-family:sans-serif;letter-spacing:0px;word-spacing:0px;fill:#000000;fill-opacity:1;stroke:none"
     x="287.89474"
     y="65.842102"
     id="text4572"><tspan
       sodipodi:role="line"
       id="tspan4570"
       x="287.89474"
       y="101.23273" /></text>
  <text
     transform="scale(-1.0479161,-0.95427487)"
     y="-64.012131"
     x="-238.36227"
     style="font-weight:100;font-size:83.96116638px;font-family:Raleway;fill:#aad400;stroke-width:1.47300291"
     id="text4578"
     font-size="57"
     class="st1 st2">m</text>
  <circle
     style="fill:url(#radialGradient4692);fill-opacity:1;stroke:url(#linearGradient4684);stroke-width:5;stroke-miterlimit:4;stroke-dasharray:none;stroke-opacity:1"
     id="path4649"
     cx="-408.79022"
     cy="-101.02158"
     r="40"
     transform="rotate(175.44121)" />
</svg>
