<?xml version="1.0" encoding="utf-8"?>
<!-- Generator: Adobe Illustrator 24.3.0, SVG Export Plug-In . SVG Version: 6.00 Build 0)  -->
<svg version="1.1" id="Layer_1" xmlns="http://www.w3.org/2000/svg" xmlns:xlink="http://www.w3.org/1999/xlink" x="0px" y="0px"
	 viewBox="0 0 800 800" style="enable-background:new 0 0 800 800;" xml:space="preserve">
<style type="text/css">
	.st0{fill:url(#SVGID_1_);}
	.st1{fill:#484742;}
	.st2{fill:url(#SVGID_2_);}
	.st3{fill:#686762;}
	.st4{fill:url(#SVGID_3_);}
	.st5{fill:url(#SVGID_4_);}
	.st6{fill:url(#SVGID_5_);}
	.st7{fill:url(#SVGID_6_);}
	.st8{fill:url(#SVGID_7_);}
	.st9{fill:url(#SVGID_8_);}
	.st10{fill:url(#SVGID_9_);}
	.st11{fill:url(#SVGID_10_);}
	.st12{fill:url(#SVGID_11_);}
	.st13{fill:url(#SVGID_12_);}
	.st14{fill:url(#SVGID_13_);}
	.st15{fill:url(#SVGID_14_);}
	.st16{fill:url(#SVGID_15_);}
	.st17{fill:url(#SVGID_16_);}
	.st18{fill:url(#SVGID_17_);}
	.st19{fill:url(#SVGID_18_);}
</style>
<linearGradient id="SVGID_1_" gradientUnits="userSpaceOnUse" x1="214.0335" y1="446.5125" x2="184.4076" y2="483.0281">
	<stop  offset="0" style="stop-color:#106A00"/>
	<stop  offset="1" style="stop-color:#79B801"/>
</linearGradient>
<path class="st0" d="M339.63,483.22c-12.61,3.44-25.37,6.12-38.05,9.23c-5.99,1.47-12.35,2.35-18.28,0.66
	c-10.66-3.04-15.17-13.43-19.94-22.41c-4.43-8.32-8.02-17.05-11.85-25.66c-6.84-15.41-13.12-31.06-19.19-46.78
	c-2.28-5.92-4.53-11.85-6.75-17.79l-30.41-103.05l-9.6-10.14c-0.56-2.11-1.06-4.22-1.47-6.33c0.38,2,0.77,4,1.15,6l-0.62-0.66
	l1.48,5.09c2.07,10.77,4.15,21.55,6.22,32.32c5.94,30.87,11.89,61.75,17.83,92.62c6.83,35.5,13.39,71,20.25,106.44
	c3.47,17.94,11.87,33.37,31.03,37.42c23.26,4.92,45.51-8.71,63.29-22.13c14.73-11.12,28.32-23.81,41.05-37.15
	c1.57-1.64,4.82-6.86,7.02-7.59C361.84,476.93,350.75,480.19,339.63,483.22z"/>
<path class="st1" d="M184.08,260.95l6.26,8.6l1.26-0.28C189.02,266.63,186.48,263.85,184.08,260.95z"/>
<linearGradient id="SVGID_2_" gradientUnits="userSpaceOnUse" x1="606.5359" y1="427.209" x2="552.2792" y2="382.7702">
	<stop  offset="0" style="stop-color:#EB2A03"/>
	<stop  offset="0.7398" style="stop-color:#F6B801"/>
</linearGradient>
<path class="st2" d="M466.48,482.93l69.71,51.54c0,0,28.42,16.54,34.1-12.4c5.68-28.94,45.4-257.79,45.4-257.79L555.9,426.23
	l-37.63,60.19L466.48,482.93z"/>
<linearGradient id="SVGID_3_" gradientUnits="userSpaceOnUse" x1="451.2366" y1="492.005" x2="456.7484" y2="555.3906">
	<stop  offset="0" style="stop-color:#EB2203"/>
	<stop  offset="1" style="stop-color:#F6B801"/>
</linearGradient>
<path class="st4" d="M558.1,421.33l-19.5,43.38c-7.3,14.15-18.61,29.72-35.28,33.04c-16.95,3.38-32.41-11.96-45.66-20.39
	c-12.33-7.83-24.53-15.83-36.59-24.06c-16.11-11-32.01-22.38-47.2-34.64c-11.72-9.47-23.79-19.49-32.98-31.55
	c-0.24-0.32-0.48-0.63-0.72-0.95c-5.15-6.92-9.4-13.81-12.94-20.49c34.85,19.65,75.3,39.08,93.89,36.01c0,0,1.93-0.52,5.25-1.52
	c0.1,0.08,0.19,0.15,0.29,0.22c5.72,4.29,11.45,8.58,17.17,12.87c15.26,11.43,30.53,22.87,45.79,34.3
	C528.71,476.51,557.4,422.67,558.1,421.33z"/>
<linearGradient id="SVGID_4_" gradientUnits="userSpaceOnUse" x1="488.9576" y1="464.6756" x2="367.6681" y2="329.9095">
	<stop  offset="0" style="stop-color:#C40000"/>
	<stop  offset="1" style="stop-color:#5B0000"/>
</linearGradient>
<path class="st5" d="M426.24,399.47c-0.37,0.07-0.74,0.14-1.12,0.21c-22.3,3.98-42.94-1.83-62.86-11.98
	c-11.9-6.06-22.72-13.66-34.09-20.58c-26.61-16.2-52.55-33.63-74.98-55.39c-8.02-7.78-15.57-16.06-22.45-24.86
	c-6.51-8.32-12.85-17.18-17.38-26.75c-11.93-25.2-4.26-61.84,24.94-70.33c8.24-2.39,17.72-3.02,26.18-1.32
	c36.52,6.55,61.69,53.34,61.69,53.34l-1.49-29.95l-23.08-36.17l-36.17-15.39l-56.84,10.22l-29.97,33.76l5.47,45.52l62.74,83.66
	l36.97,17.92c-13.27,8.83,1.49,16.14,9.19,16.33c12.97,11.02,35.7,21.02,44.05,28.34c1.27,1.12,2.3,2.06,3.02,2.76
	c14.81,14.54,35.28,21.73,54.79,29.71c13.75,5.62,25.94-0.02,37.58-7.4c3.91-2.47,9.22-5.21,12.93-7.97
	c5.72-4.24,11.01-8.25,16.42-12.86c9.18-7.84,41.42-39.56,50.07-48c-4.81,4.69-10.42,8.73-15.67,12.91
	C475.69,381.51,452.25,394.46,426.24,399.47z"/>
<linearGradient id="SVGID_5_" gradientUnits="userSpaceOnUse" x1="483.826" y1="246.882" x2="588.3203" y2="246.882">
	<stop  offset="0" style="stop-color:#C40000"/>
	<stop  offset="1" style="stop-color:#5B0000"/>
</linearGradient>
<path class="st6" d="M561.29,299.56c0,0,33.01-44.87,3.61-68.07c0,0-46.39-35.83-72.57,43.86l-8.5-20.9l5.51-39.96l27.33-29.63
	l52.59,9.19l19.06,51.21l-8.96,40.19l-12.86,23.43L561.29,299.56z"/>
<linearGradient id="SVGID_6_" gradientUnits="userSpaceOnUse" x1="168.8582" y1="337.8926" x2="619.3893" y2="337.8926">
	<stop  offset="0" style="stop-color:#C40000"/>
	<stop  offset="1" style="stop-color:#5B0000"/>
</linearGradient>
<path class="st7" d="M617.49,223c-13.55-62.47-63.16-62.7-63.16-62.7c-17.65,0.82-35.67,5.39-49.51,16.85
	c-9.94,8.23-16.83,19.41-20.91,31.57c-3.67,10.94-5.82,22.39-5.53,33.95c0.29,11.55,4.18,22.56,8.99,32.95
	c2.26,4.88,4.88,9.85,9.2,13.06c0.42,0.31,0.9,0.62,1.43,0.61c6.17-0.14-4.2-19.06-4.75-20.44c-4.05-10.17-6.03-21.38-3.99-32.24
	c3.99-21.23,25.83-43.06,48.72-37.76c18.7,4.33,31.07,22.18,36.81,39.43c15.85,47.63-33.33,81.38-61.88,110.69
	c-24.73,25.38-50.19,52.95-80.49,72.15c-11.65,7.38-23.83,13.02-37.58,7.39c-12.15-4.97-22.83-11.85-33.87-18.8
	c-11.38-7.17-139.27-96.69-165.73-153.05c-9.43-20.08-12.43-45.25,0.74-63.11c10.1-13.69,27.29-20.52,44.17-22.66
	c19.65-2.48,40.8,0.94,56.33,13.24c18.66,14.78,26.21,39.39,30.65,62.77c2.42-1.21,4.83-2.43,7.25-3.64
	c-1.67-27.61-11.52-55.99-32.66-73.83c-12.56-10.6-28.48-16.9-44.8-18.85c-19.74-2.36-40.45,1.7-57.01,12.7
	s-28.57,29.15-30.69,48.91c-2.88,26.76,12.11,51.95,28.32,71.94c14.58,17.98,30.05,35.1,44.08,53.48
	c15.7,20.58,31.32,41.22,46.81,61.96c16.6,22.21,33.54,44.16,50.28,66.26c8.45,11.16,16.86,22.36,25.14,33.65
	c8.56,11.67,15.62,21.59,30.74,24.79c21.09,4.46,40.33-0.42,53.12-18.26c4.84-6.76,9.69-13.51,14.53-20.27
	c9.35-13.05,18.71-26.1,28.06-39.14c36.55-50.99,73.46-101.63,110.04-152.47C615.7,272.78,623.18,249.27,617.49,223z"/>
<linearGradient id="SVGID_7_" gradientUnits="userSpaceOnUse" x1="487.4678" y1="388.2771" x2="324.2066" y2="214.9268">
	<stop  offset="0" style="stop-color:#E12103"/>
	<stop  offset="1" style="stop-color:#F6B801"/>
</linearGradient>
<path class="st8" d="M478.36,239.49c-16.89-17.16-33.8-20.39-45.64-20.09c-33.8,0.85-67.44,25.37-78.23,57.43
	c-8.05,23.93-8.27,51.27,6.33,71.7c15.75,22.04,18.23,29.1,63.18,51.17c-6.89,2.87-37.09,10.33-96.76-34.05
	c-17.04-32.25-17.04-59.41-17.04-59.41c-3.45-97.84,74.76-110.46,74.76-110.46C459.54,179.94,478.09,238.64,478.36,239.49z"/>
<g>
	<linearGradient id="SVGID_8_" gradientUnits="userSpaceOnUse" x1="195.4423" y1="497.4705" x2="458.2809" y2="891.7283">
		<stop  offset="0" style="stop-color:#C40000"/>
		<stop  offset="1" style="stop-color:#5B0000"/>
	</linearGradient>
	<polygon class="st9" points="248.76,590.93 292.57,648.51 300.9,642.17 257.01,584.65 	"/>
	<linearGradient id="SVGID_9_" gradientUnits="userSpaceOnUse" x1="212.4007" y1="486.1649" x2="475.2392" y2="880.4227">
		<stop  offset="0" style="stop-color:#C40000"/>
		<stop  offset="1" style="stop-color:#5B0000"/>
	</linearGradient>
	<path class="st10" d="M275.29,595.93l-0.57,0.43l3.79,4.98l0.57-0.43c1.81-1.38,4.38-1.06,5.86,0.73L310.32,635l8.25-6.28
		l-24.33-31.98C288.83,589.62,280.65,591.85,275.29,595.93z"/>
	<linearGradient id="SVGID_10_" gradientUnits="userSpaceOnUse" x1="212.0849" y1="486.3755" x2="474.9234" y2="880.6333">
		<stop  offset="0" style="stop-color:#C40000"/>
		<stop  offset="1" style="stop-color:#5B0000"/>
	</linearGradient>
	<path class="st11" d="M274.74,587.66c0.26,0.03,0.51,0.05,0.77,0.05c1.34,0,2.66-0.45,3.78-1.3c1.3-0.99,2.13-2.41,2.35-4
		c0.22-1.59-0.21-3.19-1.2-4.48c-0.95-1.25-2.41-2.11-4-2.36c-1.65-0.25-3.26,0.14-4.55,1.12c-1.32,1.01-2.17,2.48-2.37,4.14
		c-0.2,1.6,0.24,3.24,1.2,4.49C271.71,586.62,273.14,587.46,274.74,587.66z"/>
	<linearGradient id="SVGID_11_" gradientUnits="userSpaceOnUse" x1="230.7423" y1="473.9372" x2="493.5808" y2="868.1949">
		<stop  offset="0" style="stop-color:#C40000"/>
		<stop  offset="1" style="stop-color:#5B0000"/>
	</linearGradient>
	<path class="st12" d="M292.87,582.55l-0.57,0.43l3.79,4.98l0.57-0.43c1.81-1.38,4.38-1.06,5.86,0.73l25.38,33.36l8.25-6.28
		l-24.33-31.98C306.41,576.25,298.23,578.48,292.87,582.55z"/>
	<linearGradient id="SVGID_12_" gradientUnits="userSpaceOnUse" x1="230.427" y1="474.1473" x2="493.2656" y2="868.4052">
		<stop  offset="0" style="stop-color:#C40000"/>
		<stop  offset="1" style="stop-color:#5B0000"/>
	</linearGradient>
	<path class="st13" d="M292.32,574.29c0.26,0.03,0.51,0.05,0.77,0.05c1.34,0,2.66-0.45,3.78-1.3c1.3-0.99,2.13-2.41,2.35-4
		s-0.21-3.19-1.2-4.49c-0.95-1.25-2.41-2.11-4-2.36c-1.65-0.25-3.27,0.14-4.55,1.12c-1.32,1.01-2.17,2.48-2.37,4.14
		c-0.2,1.6,0.24,3.24,1.2,4.49C289.29,573.25,290.72,574.08,292.32,574.29z"/>
	<linearGradient id="SVGID_13_" gradientUnits="userSpaceOnUse" x1="260.1867" y1="454.3076" x2="523.0253" y2="848.5654">
		<stop  offset="0" style="stop-color:#C40000"/>
		<stop  offset="1" style="stop-color:#5B0000"/>
	</linearGradient>
	<path class="st14" d="M346.41,574.65c-7.31-0.05-13.63-0.09-15.36-5.25c-1.35-4.03,0.83-7.44,5.84-9.12
		c4.34-1.45,8.85-0.88,15.56,1.97l0.61,0.26l3.63-7.08l-0.78-0.27c-6.74-2.3-13.71-2.28-20.71,0.06
		c-9.83,3.29-15.82,11.96-13.36,19.32c3.43,10.22,13.35,10.32,22.11,10.41c7.66,0.08,14.28,0.14,16.28,6.11
		c1.51,4.5-2.6,8.58-7.24,10.13c-5,1.67-11.05,1.25-15.78-1.11l-0.62-0.31l-3.82,7.07l0.83,0.25c2.36,0.72,5.46,1.34,9.16,1.34
		c3.37,0,7.22-0.51,11.46-1.94c10.4-3.49,17.54-13.63,14.98-21.28C365.71,574.77,355.46,574.71,346.41,574.65z"/>
	<linearGradient id="SVGID_14_" gradientUnits="userSpaceOnUse" x1="310.221" y1="420.9514" x2="573.0595" y2="815.2092">
		<stop  offset="0" style="stop-color:#C40000"/>
		<stop  offset="1" style="stop-color:#5B0000"/>
	</linearGradient>
	<path class="st15" d="M440.52,550.48c-6.84,0-13.9,4.53-18.33,11.66c-2.85-7.43-9.05-11.66-17.23-11.66
		c-6.19,0-12.62,3.73-17.11,9.83c-1.75-6.3-8.28-8.59-14.14-8.59h-0.71v6.36h0.71c2.29,0,4.22,1.89,4.22,4.12v41.83h10.37v-28.26
		c0-9.09,7.4-17.69,15.22-17.69c6.81,0,9.98,4.58,9.98,14.39l-0.1,31.55h10.47v-28.26c0-9.09,7.4-17.69,15.22-17.69
		c6.96,0,10.49,4.84,10.49,14.4v31.55h10.47v-32.37C460.04,559.19,452.01,550.48,440.52,550.48z"/>
	<linearGradient id="SVGID_15_" gradientUnits="userSpaceOnUse" x1="358.914" y1="388.4893" x2="621.7526" y2="782.7471">
		<stop  offset="0" style="stop-color:#C40000"/>
		<stop  offset="1" style="stop-color:#5B0000"/>
	</linearGradient>
	<path class="st16" d="M505.53,609.99l7.26-16.57c3.04-6.9,6.48-14.72,3.48-20.62c-2.16-4.32-6.8-8.21-13.09-10.96
		c-6.43-2.81-13.84-4.11-20.36-3.55l-0.87,0.07l2.44,8.4l0.64-0.12c3.19-0.61,10.75-1.1,16.55,1.44c6.09,2.67,7.61,6.77,5.01,13.63
		c-10.89-3.21-35.23-8.65-41.08,4.69c-4.01,9.16,0.52,19.07,10.77,23.56c6.31,2.76,13.51,2.98,19.07,0.63
		c0.51,4.29,4.04,8.14,9.86,10.69l0.65,0.29l2.49-5.68l-0.59-0.31C505.55,614.42,504.62,612.07,505.53,609.99z M504.22,587.13
		l-5.72,13.05c-2.64,6.02-10.83,8.28-18.26,5.03c-5.87-2.57-7.84-7.99-5.14-14.16c1.97-4.49,7.75-5.83,13.96-5.83
		C494.56,585.23,500.4,586.28,504.22,587.13z"/>
	<linearGradient id="SVGID_16_" gradientUnits="userSpaceOnUse" x1="402.4911" y1="359.438" x2="665.3296" y2="753.6958">
		<stop  offset="0" style="stop-color:#C40000"/>
		<stop  offset="1" style="stop-color:#5B0000"/>
	</linearGradient>
	<path class="st17" d="M544.62,582.66c1,0.64,2.13,0.97,3.27,0.97c0.43,0,0.87-0.05,1.3-0.14c1.57-0.35,2.92-1.3,3.8-2.67
		c1.79-2.81,0.97-6.69-1.79-8.45c-2.86-1.82-6.68-0.98-8.51,1.88c-0.88,1.38-1.17,3.01-0.81,4.58
		C542.23,580.39,543.21,581.76,544.62,582.66z"/>
	<linearGradient id="SVGID_17_" gradientUnits="userSpaceOnUse" x1="372.4357" y1="379.4749" x2="635.2742" y2="773.7327">
		<stop  offset="0" style="stop-color:#C40000"/>
		<stop  offset="1" style="stop-color:#5B0000"/>
	</linearGradient>
	<path class="st18" d="M541.06,589.61c-1.23-2.8-3.63-5.43-6.75-7.42l-0.6-0.38l-3.37,5.27l0.6,0.38c1.92,1.22,2.5,3.75,1.34,5.75
		l-22.56,35.34l8.74,5.58l21.62-33.88C542.28,596.82,542.62,593.14,541.06,589.61z"/>
	<linearGradient id="SVGID_18_" gradientUnits="userSpaceOnUse" x1="389.5903" y1="368.0385" x2="652.4288" y2="762.2963">
		<stop  offset="0" style="stop-color:#C40000"/>
		<stop  offset="1" style="stop-color:#5B0000"/>
	</linearGradient>
	<path class="st19" d="M543.64,643.88c-2.09-1.33-3.31-3.02-3.64-5.01c-0.31-1.89,0.23-3.99,1.56-6.08l31.77-49.77l-10.47-2.87
		l-29.82,46.72c-2.96,4.64-3.74,8.98-2.31,12.89c1.22,3.34,3.99,6.35,8.46,9.2c1.73,1.11,5.4,2.81,7.42,3.07l0.45,0.06l3.29-5.16
		l-0.9-0.27C547.81,646.14,545.36,644.98,543.64,643.88z"/>
</g>
</svg>
